<svg xmlns="http://www.w3.org/2000/svg" viewBox="0 0 128 128" width="128" height="128" fill="none" stroke="currentColor" stroke-width="5.5" stroke-linecap="round" stroke-linejoin="round">
  <path d="M64 100V52"/>
  <path d="M64 52c0-14 10-24 24-24 10 0 18 5 24 14-12 0-20 4-24 12"/>
  <path d="M64 52c0-14-10-24-24-24-10 0-18 5-24 14 12 0 20 4 24 12"/>
  <path d="M64 58c10 0 18 7 22 18"/>
  <path d="M64 58c-10 0-18 7-22 18"/>
  <path d="M64 100c-6 0-12 4-18 12"/>
  <path d="M64 100c6 0 12 4 18 12"/>
  <path d="M64 92c-10 0-20 2-30 8"/>
  <path d="M64 92c10 0 20 2 30 8"/>
</svg>
